<svg width="216" height="198" viewBox="0 0 216 198" fill="none" xmlns="http://www.w3.org/2000/svg">
<path d="M199.23 103.279L188.239 102.103C187.583 102.029 186.963 101.766 186.454 101.346C185.945 100.927 185.568 100.368 185.37 99.7389C184.115 95.8602 182.529 92.0964 180.63 88.4889C180.307 87.9019 180.17 87.2306 180.236 86.5639C180.303 85.8972 180.571 85.2667 181.005 84.7557L187.942 76.1139C189.366 74.3795 190.09 72.1759 189.973 69.9352C189.856 67.6945 188.907 65.5782 187.311 64.0014L176.181 52.8732C174.607 51.2808 172.496 50.332 170.261 50.212C168.025 50.092 165.825 50.8096 164.091 52.2245L155.19 59.3776C154.681 59.7923 154.061 60.0475 153.408 60.1108C152.755 60.1742 152.098 60.0431 151.519 59.7339C147.992 57.9109 144.311 56.4013 140.52 55.2226C139.875 55.0243 139.301 54.643 138.869 54.1252C138.436 53.6073 138.163 52.9751 138.082 52.3051L136.903 40.9239C136.657 38.7033 135.599 36.6519 133.933 35.1638C132.267 33.6756 130.109 32.8556 127.875 32.8614H112.125C109.887 32.8645 107.728 33.6925 106.062 35.1872C104.395 36.6819 103.338 38.7383 103.093 40.9632L101.876 52.3107C101.805 52.9708 101.543 53.5958 101.122 54.1095C100.702 54.6233 100.141 55.0035 99.5081 55.2039C95.7067 56.3837 92.0168 57.8965 88.4812 59.7245C87.8953 60.0357 87.23 60.1653 86.5701 60.0969C85.9102 60.0284 85.2857 59.765 84.7762 59.3401L75.9374 52.2376C74.203 50.8141 71.9995 50.0898 69.7588 50.2067C67.518 50.3236 65.4018 51.2732 63.8249 52.8695L52.6874 64.0051C51.095 65.5786 50.1462 67.6892 50.0262 69.9247C49.9063 72.1602 50.6238 74.3602 52.0387 76.0951L59.0118 84.7726C59.4307 85.295 59.6867 85.929 59.748 86.5957C59.8094 87.2625 59.6733 87.9326 59.3568 88.5226C57.466 92.1172 55.8865 95.8672 54.6356 99.7314C54.4369 100.364 54.0582 100.926 53.5458 101.347C53.0334 101.769 52.4094 102.032 51.7499 102.105L40.7906 103.277C38.5564 103.505 36.487 104.556 34.9855 106.226C33.484 107.896 32.6579 110.065 32.6681 112.311V128.061C32.6708 130.3 33.499 132.459 34.9941 134.125C36.4893 135.791 38.5464 136.848 40.7718 137.093L51.4406 138.229C52.1022 138.302 52.7281 138.567 53.2411 138.991C53.7542 139.415 54.132 139.98 54.3281 140.616C55.5368 144.654 57.1219 148.57 59.0624 152.312C59.3608 152.902 59.4829 153.566 59.414 154.223C59.3452 154.881 59.0884 155.505 58.6743 156.021L52.0518 164.248C50.6283 165.983 49.904 168.186 50.0209 170.427C50.1378 172.668 51.0875 174.784 52.6837 176.361L63.8193 187.498C65.3928 189.091 67.5034 190.039 69.7389 190.159C71.9744 190.279 74.1744 189.562 75.9093 188.147L83.9718 181.659C84.4882 181.237 85.1167 180.974 85.7803 180.904C86.4438 180.834 87.1134 180.959 87.7068 181.264C91.51 183.317 95.507 184.989 99.6393 186.255C100.277 186.452 100.842 186.834 101.261 187.353C101.681 187.872 101.936 188.504 101.994 189.169L103.089 199.436C103.341 201.656 104.4 203.706 106.065 205.195C107.73 206.685 109.885 207.51 112.119 207.514H127.869C130.107 207.509 132.265 206.68 133.931 205.186C135.596 203.691 136.654 201.636 136.901 199.412L137.996 189.144C138.058 188.483 138.315 187.856 138.735 187.341C139.155 186.827 139.718 186.449 140.353 186.255C144.479 184.978 148.472 183.308 152.278 181.266C152.874 180.959 153.547 180.833 154.213 180.905C154.88 180.977 155.511 181.242 156.028 181.669L164.062 188.13C165.797 189.554 168 190.278 170.241 190.161C172.482 190.044 174.598 189.094 176.175 187.498L187.312 176.366C188.905 174.793 189.854 172.682 189.974 170.447C190.094 168.211 189.376 166.011 187.961 164.276L181.294 155.983C180.878 155.472 180.624 154.849 180.561 154.194C180.499 153.538 180.633 152.879 180.945 152.299C182.865 148.556 184.446 144.648 185.668 140.623C185.866 139.983 186.247 139.415 186.765 138.989C187.282 138.564 187.913 138.299 188.58 138.229L199.254 137.093C201.474 136.841 203.524 135.782 205.013 134.117C206.503 132.451 207.328 130.297 207.332 128.063V112.311C207.343 110.068 206.52 107.902 205.022 106.233C203.525 104.563 201.46 103.511 199.23 103.279ZM201.707 128.061C201.704 128.911 201.39 129.73 200.824 130.364C200.257 130.998 199.478 131.402 198.634 131.499L188.006 132.624C186.234 132.8 184.555 133.499 183.18 134.631C181.806 135.763 180.799 137.277 180.287 138.983C179.163 142.683 177.711 146.275 175.948 149.717C175.13 151.27 174.788 153.03 174.965 154.776C175.141 156.523 175.829 158.179 176.942 159.536L183.596 167.816C184.131 168.473 184.401 169.305 184.353 170.15C184.305 170.995 183.944 171.792 183.339 172.384L172.204 183.519C171.607 184.125 170.805 184.486 169.956 184.531C169.106 184.576 168.271 184.301 167.614 183.761L159.562 177.298C158.189 176.171 156.512 175.475 154.743 175.299C152.975 175.124 151.194 175.475 149.625 176.31C146.141 178.18 142.486 179.71 138.709 180.879C137.015 181.393 135.512 182.398 134.389 183.767C133.266 185.135 132.574 186.805 132.401 188.567L131.31 198.786C131.217 199.634 130.815 200.419 130.18 200.991C129.546 201.562 128.723 201.88 127.869 201.883H112.125C111.275 201.881 110.455 201.566 109.822 201C109.188 200.434 108.784 199.654 108.686 198.81L107.595 188.589C107.425 186.824 106.735 185.149 105.612 183.777C104.489 182.404 102.984 181.396 101.287 180.879C97.5084 179.721 93.8531 178.192 90.3749 176.314C89.0755 175.616 87.6236 175.251 86.1487 175.251C84.0673 175.254 82.0504 175.973 80.4374 177.289L72.3599 183.782C71.7033 184.316 70.8712 184.585 70.0265 184.537C69.1817 184.49 68.3851 184.129 67.7924 183.525L56.6568 172.389C56.0537 171.793 55.695 170.993 55.6509 170.146C55.6069 169.299 55.8807 168.466 56.4187 167.811L63.0543 159.561C64.1578 158.195 64.8394 156.538 65.0159 154.792C65.1924 153.045 64.8561 151.285 64.0481 149.726C62.2698 146.292 60.8178 142.699 59.7112 138.994C59.2001 137.293 58.196 135.782 56.8259 134.652C55.4559 133.522 53.7814 132.823 52.0143 132.645L41.4093 131.52C40.5533 131.433 39.7604 131.03 39.1845 130.391C38.6087 129.752 38.2909 128.921 38.2931 128.061V112.311C38.2957 111.46 38.6103 110.641 39.177 110.007C39.7438 109.373 40.5234 108.969 41.3681 108.872L52.3199 107.7C54.0617 107.516 55.7127 106.831 57.0723 105.727C58.432 104.623 59.4418 103.148 59.9793 101.481C61.13 97.9194 62.5847 94.4635 64.3274 91.1514C65.1605 89.5888 65.5158 87.8158 65.3492 86.0529C65.1825 84.29 64.5011 82.6151 63.3899 81.2364L56.4074 72.5495C55.8737 71.8928 55.6043 71.0605 55.6522 70.2156C55.7001 69.3707 56.0617 68.5742 56.6662 67.982L67.8018 56.8464C68.398 56.2391 69.2003 55.8775 70.0501 55.8331C70.8999 55.7886 71.7356 56.0646 72.3918 56.6064L81.2231 63.7032C82.5822 64.8251 84.2425 65.5204 85.9955 65.7019C87.7485 65.8834 89.516 65.5429 91.0762 64.7232C94.3259 63.0447 97.7171 61.6556 101.211 60.572C102.89 60.0402 104.378 59.0293 105.491 57.6637C106.604 56.298 107.295 54.6369 107.477 52.8845L108.69 41.567C108.783 40.7186 109.185 39.9342 109.82 39.3636C110.455 38.7929 111.277 38.476 112.131 38.4732H127.881C128.731 38.4678 129.554 38.7784 130.189 39.3448C130.824 39.9111 131.226 40.693 131.317 41.5389L132.495 52.907C132.704 54.658 133.412 56.312 134.535 57.6715C135.658 59.031 137.149 60.0385 138.829 60.5739C142.312 61.6574 145.694 63.044 148.935 64.7176C150.486 65.5352 152.244 65.8777 153.989 65.7023C155.734 65.5269 157.389 64.8414 158.747 63.7314L167.642 56.5839C168.298 56.0486 169.13 55.7782 169.975 55.8257C170.821 55.8732 171.618 56.2353 172.209 56.8407L183.345 67.9764C183.951 68.573 184.312 69.3751 184.357 70.2247C184.401 71.0743 184.126 71.9097 183.585 72.5664L176.625 81.2232C175.495 82.5968 174.801 84.2763 174.632 86.0466C174.462 87.8169 174.824 89.5976 175.672 91.1607C177.414 94.4739 178.869 97.9303 180.021 101.492C180.557 103.155 181.563 104.627 182.919 105.729C184.274 106.832 185.92 107.518 187.657 107.704L198.641 108.879C199.484 108.979 200.261 109.383 200.825 110.016C201.39 110.65 201.703 111.468 201.705 112.316L201.707 128.061Z" fill="#FCFCFC" fill-opacity="0.2"/>
<path d="M120 70.123C110.099 70.123 100.42 73.0592 92.1868 78.5601C83.9541 84.061 77.5374 91.8797 73.7483 101.027C69.9592 110.175 68.9678 120.241 70.8995 129.952C72.8311 139.663 77.5991 148.584 84.6005 155.585C91.6019 162.586 100.522 167.354 110.233 169.286C119.944 171.218 130.01 170.226 139.158 166.437C148.306 162.648 156.125 156.232 161.625 147.999C167.126 139.766 170.063 130.087 170.063 120.186C170.047 106.913 164.768 94.1882 155.383 84.803C145.997 75.4178 133.273 70.1384 120 70.123ZM120 164.623C111.211 164.623 102.62 162.017 95.3119 157.134C88.0042 152.251 82.3085 145.311 78.9451 137.191C75.5818 129.071 74.7017 120.136 76.4164 111.516C78.131 102.896 82.3633 94.9782 88.578 88.7635C94.7927 82.5488 102.711 78.3165 111.331 76.6019C119.951 74.8873 128.886 75.7673 137.006 79.1306C145.125 82.494 152.066 88.1897 156.948 95.4974C161.831 102.805 164.438 111.397 164.438 120.186C164.424 131.967 159.737 143.262 151.407 151.592C143.076 159.923 131.781 164.609 120 164.623Z" fill="#FCFCFC" fill-opacity="0.2"/>
<path d="M131.488 101.365L115.738 117.115L108.516 109.893C106.577 107.981 103.96 106.914 101.237 106.924C98.5138 106.934 95.9053 108.021 93.9805 109.947C92.0558 111.873 90.971 114.483 90.9629 117.206C90.9549 119.929 92.0242 122.545 93.9375 124.482L108.448 138.995C110.382 140.929 113.005 142.015 115.74 142.015C118.475 142.015 121.098 140.929 123.032 138.995L146.063 115.951C147.031 114.996 147.801 113.859 148.327 112.605C148.854 111.351 149.128 110.005 149.133 108.645C149.138 107.285 148.873 105.938 148.355 104.68C147.837 103.423 147.075 102.28 146.113 101.318C145.152 100.356 144.009 99.5943 142.752 99.0758C141.495 98.5572 140.147 98.2925 138.787 98.2969C137.427 98.3013 136.081 98.5747 134.827 99.1013C133.573 99.6279 132.436 100.397 131.481 101.365H131.488ZM142.093 111.974L119.049 135.018C118.157 135.87 116.97 136.346 115.735 136.346C114.501 136.346 113.314 135.87 112.421 135.018L97.9088 120.504C97.0359 119.623 96.5473 118.433 96.5499 117.193C96.5524 115.954 97.0459 114.766 97.9223 113.889C98.7988 113.012 99.9868 112.518 101.226 112.516C102.466 112.513 103.656 113.001 104.537 113.874L113.747 123.084C114.274 123.611 114.99 123.907 115.735 123.907C116.481 123.907 117.196 123.611 117.724 123.084L135.465 105.342C136.358 104.491 137.545 104.016 138.779 104.016C140.013 104.016 141.2 104.491 142.093 105.342C142.529 105.778 142.874 106.295 143.11 106.863C143.346 107.432 143.467 108.042 143.467 108.658C143.467 109.274 143.346 109.884 143.11 110.453C142.874 111.022 142.529 111.539 142.093 111.974Z" fill="#FCFCFC" fill-opacity="0.2"/>
</svg>
