<svg width="27" height="27" viewBox="0 0 27 27" fill="none" xmlns="http://www.w3.org/2000/svg">
<path fill-rule="evenodd" clip-rule="evenodd" d="M20.29 14.6594C19.7335 18.1451 16.711 20.8125 13.0693 20.8125C9.03365 20.8125 5.75684 17.5357 5.75684 13.5C5.75684 9.85838 8.42427 6.83588 11.9099 6.27931C12.2877 6.21919 12.6745 6.1875 13.0693 6.1875C17.105 6.1875 20.3818 9.46431 20.3818 13.5C20.3818 13.8949 20.3501 14.2816 20.29 14.6594ZM9.84127 8.81756C8.35602 9.84456 7.38184 11.5597 7.38184 13.5C7.38184 16.6387 9.93065 19.1875 13.0693 19.1875C15.0096 19.1875 16.724 18.2141 17.7501 16.7297C17.0563 17.0051 16.299 17.1562 15.5068 17.1562C12.1439 17.1562 9.41309 14.4254 9.41309 11.0625C9.41309 10.2703 9.56421 9.51388 9.84127 8.81756ZM12.2568 2.9375C12.2568 2.489 12.6208 2.125 13.0693 2.125C13.5178 2.125 13.8818 2.489 13.8818 2.9375V4.5625C13.8818 5.011 13.5178 5.375 13.0693 5.375C12.6208 5.375 12.2568 5.011 12.2568 4.5625V2.9375ZM19.9634 5.45706C20.2811 5.13937 20.7954 5.13937 21.1123 5.45706C21.43 5.77394 21.43 6.28825 21.1123 6.60594L19.9634 7.75481C19.6465 8.07169 19.1314 8.07169 18.8145 7.75481C18.4976 7.43794 18.4976 6.92281 18.8145 6.60594L19.9634 5.45706ZM23.6318 12.6875C24.0803 12.6875 24.4443 13.0515 24.4443 13.5C24.4443 13.9485 24.0803 14.3125 23.6318 14.3125H22.0068C21.5583 14.3125 21.1943 13.9485 21.1943 13.5C21.1943 13.0515 21.5583 12.6875 22.0068 12.6875H23.6318ZM21.1123 20.3941C21.43 20.7118 21.43 21.2261 21.1123 21.5429C20.7954 21.8606 20.2811 21.8606 19.9634 21.5429L18.8145 20.3941C18.4976 20.0772 18.4976 19.5621 18.8145 19.2452C19.1314 18.9283 19.6465 18.9283 19.9634 19.2452L21.1123 20.3941ZM13.8818 24.0625C13.8818 24.511 13.5178 24.875 13.0693 24.875C12.6208 24.875 12.2568 24.511 12.2568 24.0625V22.4375C12.2568 21.989 12.6208 21.625 13.0693 21.625C13.5178 21.625 13.8818 21.989 13.8818 22.4375V24.0625ZM6.17527 21.5429C5.85759 21.8606 5.34327 21.8606 5.0264 21.5429C4.70871 21.2261 4.70871 20.7118 5.0264 20.3941L6.17527 19.2452C6.49215 18.9283 7.00727 18.9283 7.32415 19.2452C7.64102 19.5621 7.64102 20.0772 7.32415 20.3941L6.17527 21.5429ZM2.50684 14.3125C2.05834 14.3125 1.69434 13.9485 1.69434 13.5C1.69434 13.0515 2.05834 12.6875 2.50684 12.6875H4.13184C4.58034 12.6875 4.94434 13.0515 4.94434 13.5C4.94434 13.9485 4.58034 14.3125 4.13184 14.3125H2.50684ZM5.0264 6.60594C4.70871 6.28825 4.70871 5.77394 5.0264 5.45706C5.34327 5.13937 5.85759 5.13937 6.17527 5.45706L7.32415 6.60594C7.64102 6.92281 7.64102 7.43794 7.32415 7.75481C7.00727 8.07169 6.49215 8.07169 6.17527 7.75481L5.0264 6.60594Z" fill="white"/>
</svg>
