<svg width="30" height="23" viewBox="0 0 30 23" fill="none" xmlns="http://www.w3.org/2000/svg">
<path d="M29.6797 22.6875H16.584V11.4082C16.584 9.5332 16.916 7.98047 17.5801 6.75C18.2637 5.5 19.1328 4.46484 20.1875 3.64453C21.2617 2.82422 22.4531 2.16992 23.7617 1.68164C25.0898 1.17383 26.3984 0.724609 27.6875 0.333984L29.6504 3.84961C28.6738 4.2207 27.834 4.60156 27.1309 4.99219C26.4473 5.36328 25.8809 5.77344 25.4316 6.22266C25.002 6.67187 24.6797 7.18945 24.4648 7.77539C24.2695 8.3418 24.1719 9.01562 24.1719 9.79688H29.6797V22.6875ZM13.4492 22.6875H0.324219V11.4082C0.324219 9.5332 0.65625 7.98047 1.32031 6.75C2.00391 5.5 2.88281 4.46484 3.95703 3.64453C5.03125 2.82422 6.22266 2.16992 7.53125 1.68164C8.85938 1.17383 10.168 0.724609 11.457 0.333984L13.3906 3.84961C12.4141 4.2207 11.5742 4.60156 10.8711 4.99219C10.1875 5.36328 9.62109 5.77344 9.17188 6.22266C8.74219 6.67187 8.41992 7.18945 8.20508 7.77539C8.00977 8.3418 7.91211 9.01562 7.91211 9.79688H13.4492V22.6875Z" fill="white"/>
</svg>
