<svg version="1.2" xmlns="http://www.w3.org/2000/svg" viewBox="0 0 695 352" width="695" height="352"><style>.a{fill:#d6dcdc}</style><path class="a" d="m624.8 228.7l20 23.9-47.1 35.6h-43.9z"/><path class="a" d="m388.4 293.6c1.9-29.5-1.6-59.1-10.4-87-8.8-27.8-22.6-53.4-40.6-75.1-18-21.7-39.8-39.1-64-51-24.3-11.9-50.4-18.2-76.9-18.4-26.5-0.2-52.7 5.7-77.1 17.3-24.4 11.5-46.3 28.6-64.5 50-18.2 21.4-32.3 46.8-41.3 74.5-9.1 27.8-12.9 57.3-11.3 86.8l36.6-2.4c-1.3-23.9 1.9-47.8 9.2-70.3 7.3-22.5 18.7-43 33.5-60.4 14.7-17.4 32.5-31.2 52.2-40.5 19.8-9.4 41-14.2 62.5-14 21.4 0.1 42.6 5.2 62.3 14.9 19.6 9.6 37.3 23.7 51.8 41.3 14.6 17.6 25.8 38.3 32.9 60.9 7.1 22.6 10 46.5 8.5 70.4z"/><path class="a" d="m644.2 253.1c19.5-16.6 34.2-38.1 42.5-62.2 8.4-24.1 10.2-50.1 5.2-75.2-5-25-16.7-48.3-33.7-67.3-17-19.1-38.9-33.2-63.2-41-24.3-7.8-50.3-9-75.2-3.3-25 5.6-48 17.8-66.6 35.3-18.6 17.5-32.2 39.6-39.4 64.1-7.2 24.6-7.7 50.6-1.5 75.4l30.1-7.6c-4.8-19.4-4.5-39.8 1.2-59 5.6-19.2 16.3-36.6 30.9-50.3 14.6-13.7 32.6-23.2 52.1-27.6 19.5-4.4 39.9-3.5 58.9 2.6 19.1 6.1 36.2 17.2 49.5 32.1 13.4 14.9 22.5 33.1 26.4 52.7 3.9 19.7 2.5 40-4 58.9-6.6 18.9-18.1 35.7-33.3 48.7z"/><path class="a" d="m590.9 346.3l-36.7-58.2h42.5l32.3 52.8z"/></svg>