<svg version="1.2" xmlns="http://www.w3.org/2000/svg" viewBox="0 0 595 264" width="595" height="264"><style></style><path  d="m570.7 0.7c-36.8 63.9-101.1 85.3-128.6 88v21.2c57.3-3.2 108.1-39.7 126.3-57.6v209.5h26.3v-261.1z"/><path  d="m388.2 257.4c1.9-29.5-1.6-59-10.4-86.9-8.8-27.9-22.6-53.5-40.6-75.2-18-21.7-39.8-39-64-51-24.2-11.9-50.4-18.2-76.9-18.3-26.5-0.2-52.7 5.6-77.1 17.2-24.3 11.6-46.3 28.6-64.5 50-18.2 21.5-32.3 46.8-41.3 74.6-9.1 27.7-12.9 57.3-11.3 86.8l36.7-2.5c-1.3-23.9 1.8-47.8 9.1-70.3 7.3-22.4 18.7-43 33.5-60.4 14.7-17.3 32.5-31.1 52.3-40.5 19.7-9.4 40.9-14.1 62.4-14 21.5 0.2 42.7 5.3 62.3 14.9 19.6 9.7 37.3 23.7 51.9 41.3 14.5 17.6 25.7 38.3 32.8 60.9 7.2 22.6 10 46.6 8.5 70.4z"/></svg>